<svg xmlns="http://www.w3.org/2000/svg" width="132.597" height="46.452" viewBox="0 0 132.597 46.452">
  <g id="Groupe_993" data-name="Groupe 993" transform="translate(5027.657 -48.794)">
    <path id="Tracé_390" data-name="Tracé 390" d="M4.461,5.9h1.51V4.392H4.461V5.9Zm0,0h1.51V4.392H4.461V5.9Zm0,0h1.51V4.392H4.461V5.9Zm0,0h1.51V4.392H4.461V5.9Zm2.059,0h1.51V4.392H6.52V5.9Zm0,0h1.51V4.392H6.52V5.9Zm0,0h1.51V4.392H6.52V5.9Zm0,0h1.51V4.392H6.52V5.9ZM3.431,3.843h1.51V2.333H3.431v1.51Zm0,0h1.51V2.333H3.431v1.51Zm0,0h1.51V2.333H3.431v1.51Zm0,0h1.51V2.333H3.431v1.51Zm0-2.059h1.51V.275H3.431v1.51Zm0,0h1.51V.275H3.431v1.51Zm0,0h1.51V.275H3.431v1.51Zm0,0h1.51V.275H3.431v1.51Zm0-2.059h1.51v-1.51H3.431v1.51Zm0,0h1.51v-1.51H3.431v1.51Zm0,0h1.51v-1.51H3.431v1.51Zm0,0h1.51v-1.51H3.431v1.51Zm0-2.059h1.51v-1.51H3.431v1.51Zm0,0h1.51v-1.51H3.431v1.51Zm0,0h1.51v-1.51H3.431v1.51Zm0,0h1.51v-1.51H3.431v1.51Zm0-2.059h1.51V-5.9H3.431v1.51Zm0,0h1.51V-5.9H3.431v1.51Zm0,0h1.51V-5.9H3.431v1.51Zm0,0h1.51V-5.9H3.431v1.51Zm0-2.059h1.51v-1.51H3.431v1.51Zm0,0h1.51v-1.51H3.431v1.51Zm0,0h1.51v-1.51H3.431v1.51Zm0,0h1.51v-1.51H3.431v1.51ZM.343-8.51h1.51v-1.51H.343v1.51Zm0,0h1.51v-1.51H.343v1.51Zm0,0h1.51v-1.51H.343v1.51Zm0,0h1.51v-1.51H.343v1.51Zm2.059,0h1.51v-1.51H2.4v1.51Zm0,0h1.51v-1.51H2.4v1.51Zm0,0h1.51v-1.51H2.4v1.51Zm0,0h1.51v-1.51H2.4v1.51Zm1.029-2.059h1.51v-1.51H3.431v1.51Zm0,0h1.51v-1.51H3.431v1.51Zm0,0h1.51v-1.51H3.431v1.51Zm0,0h1.51v-1.51H3.431v1.51Zm0-2.059h1.51v-1.51H3.431v1.51Zm0,0h1.51v-1.51H3.431v1.51Zm0,0h1.51v-1.51H3.431v1.51Zm0,0h1.51v-1.51H3.431v1.51Zm0-2.059h1.51V-16.2H3.431v1.51Zm0,0h1.51V-16.2H3.431v1.51Zm0,0h1.51V-16.2H3.431v1.51Zm0,0h1.51V-16.2H3.431v1.51Zm0-2.059h1.51v-1.51H3.431v1.51Zm0,0h1.51v-1.51H3.431v1.51Zm0,0h1.51v-1.51H3.431v1.51Zm0,0h1.51v-1.51H3.431v1.51Zm0-2.059h1.51v-1.51H3.431v1.51Zm0,0h1.51v-1.51H3.431v1.51Zm0,0h1.51v-1.51H3.431v1.51Zm0,0h1.51v-1.51H3.431v1.51Zm0-2.059h1.51v-1.51H3.431v1.51Zm0,0h1.51v-1.51H3.431v1.51Zm0,0h1.51v-1.51H3.431v1.51Zm0,0h1.51v-1.51H3.431v1.51Zm1.029-2.059h1.51v-1.51H4.461v1.51Zm0,0h1.51v-1.51H4.461v1.51Zm0,0h1.51v-1.51H4.461v1.51Zm0,0h1.51v-1.51H4.461v1.51Zm2.059,0h1.51v-1.51H6.52v1.51Zm0,0h1.51v-1.51H6.52v1.51Zm0,0h1.51v-1.51H6.52v1.51Zm0,0h1.51v-1.51H6.52v1.51ZM12.737-.275h1.51v-1.51h-1.51v1.51Zm0,0h1.51v-1.51h-1.51v1.51Zm0,0h1.51v-1.51h-1.51v1.51Zm0,0h1.51v-1.51h-1.51v1.51Zm2.059,0h1.51v-1.51H14.8v1.51Zm0,0h1.51v-1.51H14.8v1.51Zm0,0h1.51v-1.51H14.8v1.51Zm0,0h1.51v-1.51H14.8v1.51Zm2.059,0h1.51v-1.51h-1.51v1.51Zm0,0h1.51v-1.51h-1.51v1.51Zm0,0h1.51v-1.51h-1.51v1.51Zm0,0h1.51v-1.51h-1.51v1.51ZM14.8-2.333h1.51v-1.51H14.8v1.51Zm0,0h1.51v-1.51H14.8v1.51Zm0,0h1.51v-1.51H14.8v1.51Zm0,0h1.51v-1.51H14.8v1.51Zm0-2.059h1.51V-5.9H14.8v1.51Zm0,0h1.51V-5.9H14.8v1.51Zm0,0h1.51V-5.9H14.8v1.51Zm0,0h1.51V-5.9H14.8v1.51Zm0-2.059h1.51v-1.51H14.8v1.51Zm0,0h1.51v-1.51H14.8v1.51Zm0,0h1.51v-1.51H14.8v1.51Zm0,0h1.51v-1.51H14.8v1.51Zm0-2.059h1.51v-1.51H14.8v1.51Zm0,0h1.51v-1.51H14.8v1.51Zm0,0h1.51v-1.51H14.8v1.51Zm0,0h1.51v-1.51H14.8v1.51Zm0-2.059h1.51v-1.51H14.8v1.51Zm0,0h1.51v-1.51H14.8v1.51Zm0,0h1.51v-1.51H14.8v1.51Zm0,0h1.51v-1.51H14.8v1.51Zm0-2.059h1.51v-1.51H14.8v1.51Zm0,0h1.51v-1.51H14.8v1.51Zm0,0h1.51v-1.51H14.8v1.51Zm0,0h1.51v-1.51H14.8v1.51Zm0-2.059h1.51V-16.2H14.8v1.51Zm0,0h1.51V-16.2H14.8v1.51Zm0,0h1.51V-16.2H14.8v1.51Zm0,0h1.51V-16.2H14.8v1.51Zm0-2.059h1.51v-1.51H14.8v1.51Zm0,0h1.51v-1.51H14.8v1.51Zm0,0h1.51v-1.51H14.8v1.51Zm0,0h1.51v-1.51H14.8v1.51Zm0-2.059h1.51v-1.51H14.8v1.51Zm0,0h1.51v-1.51H14.8v1.51Zm0,0h1.51v-1.51H14.8v1.51Zm0,0h1.51v-1.51H14.8v1.51Zm-2.059-2.059h1.51v-1.51h-1.51v1.51Zm0,0h1.51v-1.51h-1.51v1.51Zm0,0h1.51v-1.51h-1.51v1.51Zm0,0h1.51v-1.51h-1.51v1.51Zm2.059,0h1.51v-1.51H14.8v1.51Zm0,0h1.51v-1.51H14.8v1.51Zm0,0h1.51v-1.51H14.8v1.51Zm0,0h1.51v-1.51H14.8v1.51Zm2.059,0h1.51v-1.51h-1.51v1.51Zm0,0h1.51v-1.51h-1.51v1.51Zm0,0h1.51v-1.51h-1.51v1.51Zm0,0h1.51v-1.51h-1.51v1.51ZM24.1-.275h1.51v-1.51H24.1v1.51Zm0,0h1.51v-1.51H24.1v1.51Zm0,0h1.51v-1.51H24.1v1.51Zm0,0h1.51v-1.51H24.1v1.51Zm8.235,0h1.51v-1.51h-1.51v1.51Zm0,0h1.51v-1.51h-1.51v1.51Zm0,0h1.51v-1.51h-1.51v1.51Zm0,0h1.51v-1.51h-1.51v1.51ZM24.1-2.333h1.51v-1.51H24.1v1.51Zm0,0h1.51v-1.51H24.1v1.51Zm0,0h1.51v-1.51H24.1v1.51Zm0,0h1.51v-1.51H24.1v1.51Zm8.235,0h1.51v-1.51h-1.51v1.51Zm0,0h1.51v-1.51h-1.51v1.51Zm0,0h1.51v-1.51h-1.51v1.51Zm0,0h1.51v-1.51h-1.51v1.51ZM24.1-4.392h1.51V-5.9H24.1v1.51Zm0,0h1.51V-5.9H24.1v1.51Zm0,0h1.51V-5.9H24.1v1.51Zm0,0h1.51V-5.9H24.1v1.51Zm8.235,0h1.51V-5.9h-1.51v1.51Zm0,0h1.51V-5.9h-1.51v1.51Zm0,0h1.51V-5.9h-1.51v1.51Zm0,0h1.51V-5.9h-1.51v1.51ZM24.1-6.451h1.51v-1.51H24.1v1.51Zm0,0h1.51v-1.51H24.1v1.51Zm0,0h1.51v-1.51H24.1v1.51Zm0,0h1.51v-1.51H24.1v1.51Zm2.059,0h1.51v-1.51h-1.51v1.51Zm0,0h1.51v-1.51h-1.51v1.51Zm0,0h1.51v-1.51h-1.51v1.51Zm0,0h1.51v-1.51h-1.51v1.51Zm2.059,0h1.51v-1.51H28.22v1.51Zm0,0h1.51v-1.51H28.22v1.51Zm0,0h1.51v-1.51H28.22v1.51Zm0,0h1.51v-1.51H28.22v1.51Zm2.059,0h1.51v-1.51h-1.51v1.51Zm0,0h1.51v-1.51h-1.51v1.51Zm0,0h1.51v-1.51h-1.51v1.51Zm0,0h1.51v-1.51h-1.51v1.51Zm2.059,0h1.51v-1.51h-1.51v1.51Zm0,0h1.51v-1.51h-1.51v1.51Zm0,0h1.51v-1.51h-1.51v1.51Zm0,0h1.51v-1.51h-1.51v1.51ZM24.1-8.51h1.51v-1.51H24.1v1.51Zm0,0h1.51v-1.51H24.1v1.51Zm0,0h1.51v-1.51H24.1v1.51Zm0,0h1.51v-1.51H24.1v1.51Zm8.235,0h1.51v-1.51h-1.51v1.51Zm0,0h1.51v-1.51h-1.51v1.51Zm0,0h1.51v-1.51h-1.51v1.51Zm0,0h1.51v-1.51h-1.51v1.51ZM24.1-10.569h1.51v-1.51H24.1v1.51Zm0,0h1.51v-1.51H24.1v1.51Zm0,0h1.51v-1.51H24.1v1.51Zm0,0h1.51v-1.51H24.1v1.51Zm8.235,0h1.51v-1.51h-1.51v1.51Zm0,0h1.51v-1.51h-1.51v1.51Zm0,0h1.51v-1.51h-1.51v1.51Zm0,0h1.51v-1.51h-1.51v1.51ZM24.1-12.627h1.51v-1.51H24.1v1.51Zm0,0h1.51v-1.51H24.1v1.51Zm0,0h1.51v-1.51H24.1v1.51Zm0,0h1.51v-1.51H24.1v1.51Zm8.235,0h1.51v-1.51h-1.51v1.51Zm0,0h1.51v-1.51h-1.51v1.51Zm0,0h1.51v-1.51h-1.51v1.51Zm0,0h1.51v-1.51h-1.51v1.51ZM24.1-14.686h1.51V-16.2H24.1v1.51Zm0,0h1.51V-16.2H24.1v1.51Zm0,0h1.51V-16.2H24.1v1.51Zm0,0h1.51V-16.2H24.1v1.51Zm8.235,0h1.51V-16.2h-1.51v1.51Zm0,0h1.51V-16.2h-1.51v1.51Zm0,0h1.51V-16.2h-1.51v1.51Zm0,0h1.51V-16.2h-1.51v1.51Zm-7.206-2.059h1.51v-1.51h-1.51v1.51Zm0,0h1.51v-1.51h-1.51v1.51Zm0,0h1.51v-1.51h-1.51v1.51Zm0,0h1.51v-1.51h-1.51v1.51Zm6.176,0h1.51v-1.51h-1.51v1.51Zm0,0h1.51v-1.51h-1.51v1.51Zm0,0h1.51v-1.51h-1.51v1.51Zm0,0h1.51v-1.51h-1.51v1.51ZM26.161-18.8h1.51v-1.51h-1.51v1.51Zm0,0h1.51v-1.51h-1.51v1.51Zm0,0h1.51v-1.51h-1.51v1.51Zm0,0h1.51v-1.51h-1.51v1.51Zm4.118,0h1.51v-1.51h-1.51v1.51Zm0,0h1.51v-1.51h-1.51v1.51Zm0,0h1.51v-1.51h-1.51v1.51Zm0,0h1.51v-1.51h-1.51v1.51ZM27.19-20.863H28.7v-1.51H27.19v1.51Zm0,0H28.7v-1.51H27.19v1.51Zm0,0H28.7v-1.51H27.19v1.51Zm0,0H28.7v-1.51H27.19v1.51Zm2.059,0h1.51v-1.51h-1.51v1.51Zm0,0h1.51v-1.51h-1.51v1.51Zm0,0h1.51v-1.51h-1.51v1.51Zm0,0h1.51v-1.51h-1.51v1.51ZM45.761-.275h1.51v-1.51h-1.51v1.51Zm0,0h1.51v-1.51h-1.51v1.51Zm0,0h1.51v-1.51h-1.51v1.51Zm0,0h1.51v-1.51h-1.51v1.51Zm0-2.059h1.51v-1.51h-1.51v1.51Zm0,0h1.51v-1.51h-1.51v1.51Zm0,0h1.51v-1.51h-1.51v1.51Zm0,0h1.51v-1.51h-1.51v1.51ZM39.584-4.392h1.51V-5.9h-1.51v1.51Zm0,0h1.51V-5.9h-1.51v1.51Zm0,0h1.51V-5.9h-1.51v1.51Zm0,0h1.51V-5.9h-1.51v1.51Zm2.059,0h1.51V-5.9h-1.51v1.51Zm0,0h1.51V-5.9h-1.51v1.51Zm0,0h1.51V-5.9h-1.51v1.51Zm0,0h1.51V-5.9h-1.51v1.51Zm2.059,0h1.51V-5.9H43.7v1.51Zm0,0h1.51V-5.9H43.7v1.51Zm0,0h1.51V-5.9H43.7v1.51Zm0,0h1.51V-5.9H43.7v1.51Zm2.059,0h1.51V-5.9h-1.51v1.51Zm0,0h1.51V-5.9h-1.51v1.51Zm0,0h1.51V-5.9h-1.51v1.51Zm0,0h1.51V-5.9h-1.51v1.51Zm2.059,0h1.51V-5.9H47.82v1.51Zm0,0h1.51V-5.9H47.82v1.51Zm0,0h1.51V-5.9H47.82v1.51Zm0,0h1.51V-5.9H47.82v1.51Zm2.059,0h1.51V-5.9h-1.51v1.51Zm0,0h1.51V-5.9h-1.51v1.51Zm0,0h1.51V-5.9h-1.51v1.51Zm0,0h1.51V-5.9h-1.51v1.51ZM39.584-6.451h1.51v-1.51h-1.51v1.51Zm0,0h1.51v-1.51h-1.51v1.51Zm0,0h1.51v-1.51h-1.51v1.51Zm0,0h1.51v-1.51h-1.51v1.51Zm6.176,0h1.51v-1.51h-1.51v1.51Zm0,0h1.51v-1.51h-1.51v1.51Zm0,0h1.51v-1.51h-1.51v1.51Zm0,0h1.51v-1.51h-1.51v1.51ZM39.584-8.51h1.51v-1.51h-1.51v1.51Zm0,0h1.51v-1.51h-1.51v1.51Zm0,0h1.51v-1.51h-1.51v1.51Zm0,0h1.51v-1.51h-1.51v1.51Zm6.176,0h1.51v-1.51h-1.51v1.51Zm0,0h1.51v-1.51h-1.51v1.51Zm0,0h1.51v-1.51h-1.51v1.51Zm0,0h1.51v-1.51h-1.51v1.51Zm-5.147-2.059h1.51v-1.51h-1.51v1.51Zm0,0h1.51v-1.51h-1.51v1.51Zm0,0h1.51v-1.51h-1.51v1.51Zm0,0h1.51v-1.51h-1.51v1.51Zm1.029-2.059h1.51v-1.51h-1.51v1.51Zm0,0h1.51v-1.51h-1.51v1.51Zm0,0h1.51v-1.51h-1.51v1.51Zm0,0h1.51v-1.51h-1.51v1.51Zm1.029-2.059h1.51V-16.2h-1.51v1.51Zm0,0h1.51V-16.2h-1.51v1.51Zm0,0h1.51V-16.2h-1.51v1.51Zm0,0h1.51V-16.2h-1.51v1.51ZM43.7-16.745h1.51v-1.51H43.7v1.51Zm0,0h1.51v-1.51H43.7v1.51Zm0,0h1.51v-1.51H43.7v1.51Zm0,0h1.51v-1.51H43.7v1.51ZM44.731-18.8h1.51v-1.51h-1.51v1.51Zm0,0h1.51v-1.51h-1.51v1.51Zm0,0h1.51v-1.51h-1.51v1.51Zm0,0h1.51v-1.51h-1.51v1.51Zm1.029-2.059h1.51v-1.51h-1.51v1.51Zm0,0h1.51v-1.51h-1.51v1.51Zm0,0h1.51v-1.51h-1.51v1.51Zm0,0h1.51v-1.51h-1.51v1.51ZM59.184-.275h1.51v-1.51h-1.51v1.51Zm0,0h1.51v-1.51h-1.51v1.51Zm0,0h1.51v-1.51h-1.51v1.51Zm0,0h1.51v-1.51h-1.51v1.51Zm2.059,0h1.51v-1.51h-1.51v1.51Zm0,0h1.51v-1.51h-1.51v1.51Zm0,0h1.51v-1.51h-1.51v1.51Zm0,0h1.51v-1.51h-1.51v1.51Zm2.059,0h1.51v-1.51H63.3v1.51Zm0,0h1.51v-1.51H63.3v1.51Zm0,0h1.51v-1.51H63.3v1.51Zm0,0h1.51v-1.51H63.3v1.51ZM57.125-2.333h1.51v-1.51h-1.51v1.51Zm0,0h1.51v-1.51h-1.51v1.51Zm0,0h1.51v-1.51h-1.51v1.51Zm0,0h1.51v-1.51h-1.51v1.51Zm8.235,0h1.51v-1.51h-1.51v1.51Zm0,0h1.51v-1.51h-1.51v1.51Zm0,0h1.51v-1.51h-1.51v1.51Zm0,0h1.51v-1.51h-1.51v1.51ZM57.125-4.392h1.51V-5.9h-1.51v1.51Zm0,0h1.51V-5.9h-1.51v1.51Zm0,0h1.51V-5.9h-1.51v1.51Zm0,0h1.51V-5.9h-1.51v1.51Zm8.235,0h1.51V-5.9h-1.51v1.51Zm0,0h1.51V-5.9h-1.51v1.51Zm0,0h1.51V-5.9h-1.51v1.51Zm0,0h1.51V-5.9h-1.51v1.51ZM57.125-6.451h1.51v-1.51h-1.51v1.51Zm0,0h1.51v-1.51h-1.51v1.51Zm0,0h1.51v-1.51h-1.51v1.51Zm0,0h1.51v-1.51h-1.51v1.51Zm8.235,0h1.51v-1.51h-1.51v1.51Zm0,0h1.51v-1.51h-1.51v1.51Zm0,0h1.51v-1.51h-1.51v1.51Zm0,0h1.51v-1.51h-1.51v1.51ZM63.3-8.51h1.51v-1.51H63.3v1.51Zm0,0h1.51v-1.51H63.3v1.51Zm0,0h1.51v-1.51H63.3v1.51Zm0,0h1.51v-1.51H63.3v1.51Zm-2.059-2.059h1.51v-1.51h-1.51v1.51Zm0,0h1.51v-1.51h-1.51v1.51Zm0,0h1.51v-1.51h-1.51v1.51Zm0,0h1.51v-1.51h-1.51v1.51Zm-2.059-2.059h1.51v-1.51h-1.51v1.51Zm0,0h1.51v-1.51h-1.51v1.51Zm0,0h1.51v-1.51h-1.51v1.51Zm0,0h1.51v-1.51h-1.51v1.51Zm-2.059-2.059h1.51V-16.2h-1.51v1.51Zm0,0h1.51V-16.2h-1.51v1.51Zm0,0h1.51V-16.2h-1.51v1.51Zm0,0h1.51V-16.2h-1.51v1.51Zm0-2.059h1.51v-1.51h-1.51v1.51Zm0,0h1.51v-1.51h-1.51v1.51Zm0,0h1.51v-1.51h-1.51v1.51Zm0,0h1.51v-1.51h-1.51v1.51Zm8.235,0h1.51v-1.51h-1.51v1.51Zm0,0h1.51v-1.51h-1.51v1.51Zm0,0h1.51v-1.51h-1.51v1.51Zm0,0h1.51v-1.51h-1.51v1.51ZM57.125-18.8h1.51v-1.51h-1.51v1.51Zm0,0h1.51v-1.51h-1.51v1.51Zm0,0h1.51v-1.51h-1.51v1.51Zm0,0h1.51v-1.51h-1.51v1.51Zm8.235,0h1.51v-1.51h-1.51v1.51Zm0,0h1.51v-1.51h-1.51v1.51Zm0,0h1.51v-1.51h-1.51v1.51Zm0,0h1.51v-1.51h-1.51v1.51Zm-6.176-2.059h1.51v-1.51h-1.51v1.51Zm0,0h1.51v-1.51h-1.51v1.51Zm0,0h1.51v-1.51h-1.51v1.51Zm0,0h1.51v-1.51h-1.51v1.51Zm2.059,0h1.51v-1.51h-1.51v1.51Zm0,0h1.51v-1.51h-1.51v1.51Zm0,0h1.51v-1.51h-1.51v1.51Zm0,0h1.51v-1.51h-1.51v1.51Zm2.059,0h1.51v-1.51H63.3v1.51Zm0,0h1.51v-1.51H63.3v1.51Zm0,0h1.51v-1.51H63.3v1.51Zm0,0h1.51v-1.51H63.3v1.51ZM75.7-.275h1.51v-1.51H75.7v1.51Zm0,0h1.51v-1.51H75.7v1.51Zm0,0h1.51v-1.51H75.7v1.51Zm0,0h1.51v-1.51H75.7v1.51Zm2.059,0h1.51v-1.51h-1.51v1.51Zm0,0h1.51v-1.51h-1.51v1.51Zm0,0h1.51v-1.51h-1.51v1.51Zm0,0h1.51v-1.51h-1.51v1.51Zm2.059,0h1.51v-1.51h-1.51v1.51Zm0,0h1.51v-1.51h-1.51v1.51Zm0,0h1.51v-1.51h-1.51v1.51Zm0,0h1.51v-1.51h-1.51v1.51ZM73.637-2.333h1.51v-1.51h-1.51v1.51Zm0,0h1.51v-1.51h-1.51v1.51Zm0,0h1.51v-1.51h-1.51v1.51Zm0,0h1.51v-1.51h-1.51v1.51Zm8.235,0h1.51v-1.51h-1.51v1.51Zm0,0h1.51v-1.51h-1.51v1.51Zm0,0h1.51v-1.51h-1.51v1.51Zm0,0h1.51v-1.51h-1.51v1.51ZM73.637-4.392h1.51V-5.9h-1.51v1.51Zm0,0h1.51V-5.9h-1.51v1.51Zm0,0h1.51V-5.9h-1.51v1.51Zm0,0h1.51V-5.9h-1.51v1.51Zm8.235,0h1.51V-5.9h-1.51v1.51Zm0,0h1.51V-5.9h-1.51v1.51Zm0,0h1.51V-5.9h-1.51v1.51Zm0,0h1.51V-5.9h-1.51v1.51ZM73.637-6.451h1.51v-1.51h-1.51v1.51Zm0,0h1.51v-1.51h-1.51v1.51Zm0,0h1.51v-1.51h-1.51v1.51Zm0,0h1.51v-1.51h-1.51v1.51Zm8.235,0h1.51v-1.51h-1.51v1.51Zm0,0h1.51v-1.51h-1.51v1.51Zm0,0h1.51v-1.51h-1.51v1.51Zm0,0h1.51v-1.51h-1.51v1.51ZM73.637-8.51h1.51v-1.51h-1.51v1.51Zm0,0h1.51v-1.51h-1.51v1.51Zm0,0h1.51v-1.51h-1.51v1.51Zm0,0h1.51v-1.51h-1.51v1.51Zm8.235,0h1.51v-1.51h-1.51v1.51Zm0,0h1.51v-1.51h-1.51v1.51Zm0,0h1.51v-1.51h-1.51v1.51Zm0,0h1.51v-1.51h-1.51v1.51Zm-8.235-2.059h1.51v-1.51h-1.51v1.51Zm0,0h1.51v-1.51h-1.51v1.51Zm0,0h1.51v-1.51h-1.51v1.51Zm0,0h1.51v-1.51h-1.51v1.51Zm8.235,0h1.51v-1.51h-1.51v1.51Zm0,0h1.51v-1.51h-1.51v1.51Zm0,0h1.51v-1.51h-1.51v1.51Zm0,0h1.51v-1.51h-1.51v1.51Zm-8.235-2.059h1.51v-1.51h-1.51v1.51Zm0,0h1.51v-1.51h-1.51v1.51Zm0,0h1.51v-1.51h-1.51v1.51Zm0,0h1.51v-1.51h-1.51v1.51Zm8.235,0h1.51v-1.51h-1.51v1.51Zm0,0h1.51v-1.51h-1.51v1.51Zm0,0h1.51v-1.51h-1.51v1.51Zm0,0h1.51v-1.51h-1.51v1.51Zm-8.235-2.059h1.51V-16.2h-1.51v1.51Zm0,0h1.51V-16.2h-1.51v1.51Zm0,0h1.51V-16.2h-1.51v1.51Zm0,0h1.51V-16.2h-1.51v1.51Zm8.235,0h1.51V-16.2h-1.51v1.51Zm0,0h1.51V-16.2h-1.51v1.51Zm0,0h1.51V-16.2h-1.51v1.51Zm0,0h1.51V-16.2h-1.51v1.51Zm-8.235-2.059h1.51v-1.51h-1.51v1.51Zm0,0h1.51v-1.51h-1.51v1.51Zm0,0h1.51v-1.51h-1.51v1.51Zm0,0h1.51v-1.51h-1.51v1.51Zm8.235,0h1.51v-1.51h-1.51v1.51Zm0,0h1.51v-1.51h-1.51v1.51Zm0,0h1.51v-1.51h-1.51v1.51Zm0,0h1.51v-1.51h-1.51v1.51ZM73.637-18.8h1.51v-1.51h-1.51v1.51Zm0,0h1.51v-1.51h-1.51v1.51Zm0,0h1.51v-1.51h-1.51v1.51Zm0,0h1.51v-1.51h-1.51v1.51Zm8.235,0h1.51v-1.51h-1.51v1.51Zm0,0h1.51v-1.51h-1.51v1.51Zm0,0h1.51v-1.51h-1.51v1.51Zm0,0h1.51v-1.51h-1.51v1.51Zm-8.235-2.059h1.51v-1.51h-1.51v1.51Zm0,0h1.51v-1.51h-1.51v1.51Zm0,0h1.51v-1.51h-1.51v1.51Zm0,0h1.51v-1.51h-1.51v1.51Zm8.235,0h1.51v-1.51h-1.51v1.51Zm0,0h1.51v-1.51h-1.51v1.51Zm0,0h1.51v-1.51h-1.51v1.51Zm0,0h1.51v-1.51h-1.51v1.51ZM90.149-.275h1.51v-1.51h-1.51v1.51Zm0,0h1.51v-1.51h-1.51v1.51Zm0,0h1.51v-1.51h-1.51v1.51Zm0,0h1.51v-1.51h-1.51v1.51Zm2.059,0h1.51v-1.51h-1.51v1.51Zm0,0h1.51v-1.51h-1.51v1.51Zm0,0h1.51v-1.51h-1.51v1.51Zm0,0h1.51v-1.51h-1.51v1.51Zm2.059,0h1.51v-1.51h-1.51v1.51Zm0,0h1.51v-1.51h-1.51v1.51Zm0,0h1.51v-1.51h-1.51v1.51Zm0,0h1.51v-1.51h-1.51v1.51Zm2.059,0h1.51v-1.51h-1.51v1.51Zm0,0h1.51v-1.51h-1.51v1.51Zm0,0h1.51v-1.51h-1.51v1.51Zm0,0h1.51v-1.51h-1.51v1.51ZM90.149-2.333h1.51v-1.51h-1.51v1.51Zm0,0h1.51v-1.51h-1.51v1.51Zm0,0h1.51v-1.51h-1.51v1.51Zm0,0h1.51v-1.51h-1.51v1.51Zm8.235,0h1.51v-1.51h-1.51v1.51Zm0,0h1.51v-1.51h-1.51v1.51Zm0,0h1.51v-1.51h-1.51v1.51Zm0,0h1.51v-1.51h-1.51v1.51ZM90.149-4.392h1.51V-5.9h-1.51v1.51Zm0,0h1.51V-5.9h-1.51v1.51Zm0,0h1.51V-5.9h-1.51v1.51Zm0,0h1.51V-5.9h-1.51v1.51Zm8.235,0h1.51V-5.9h-1.51v1.51Zm0,0h1.51V-5.9h-1.51v1.51Zm0,0h1.51V-5.9h-1.51v1.51Zm0,0h1.51V-5.9h-1.51v1.51ZM90.149-6.451h1.51v-1.51h-1.51v1.51Zm0,0h1.51v-1.51h-1.51v1.51Zm0,0h1.51v-1.51h-1.51v1.51Zm0,0h1.51v-1.51h-1.51v1.51Zm8.235,0h1.51v-1.51h-1.51v1.51Zm0,0h1.51v-1.51h-1.51v1.51Zm0,0h1.51v-1.51h-1.51v1.51Zm0,0h1.51v-1.51h-1.51v1.51ZM90.149-8.51h1.51v-1.51h-1.51v1.51Zm0,0h1.51v-1.51h-1.51v1.51Zm0,0h1.51v-1.51h-1.51v1.51Zm0,0h1.51v-1.51h-1.51v1.51Zm8.235,0h1.51v-1.51h-1.51v1.51Zm0,0h1.51v-1.51h-1.51v1.51Zm0,0h1.51v-1.51h-1.51v1.51Zm0,0h1.51v-1.51h-1.51v1.51Zm-8.235-2.059h1.51v-1.51h-1.51v1.51Zm0,0h1.51v-1.51h-1.51v1.51Zm0,0h1.51v-1.51h-1.51v1.51Zm0,0h1.51v-1.51h-1.51v1.51Zm8.235,0h1.51v-1.51h-1.51v1.51Zm0,0h1.51v-1.51h-1.51v1.51Zm0,0h1.51v-1.51h-1.51v1.51Zm0,0h1.51v-1.51h-1.51v1.51Zm-8.235-2.059h1.51v-1.51h-1.51v1.51Zm0,0h1.51v-1.51h-1.51v1.51Zm0,0h1.51v-1.51h-1.51v1.51Zm0,0h1.51v-1.51h-1.51v1.51Zm8.235,0h1.51v-1.51h-1.51v1.51Zm0,0h1.51v-1.51h-1.51v1.51Zm0,0h1.51v-1.51h-1.51v1.51Zm0,0h1.51v-1.51h-1.51v1.51Zm-8.235-2.059h1.51V-16.2h-1.51v1.51Zm0,0h1.51V-16.2h-1.51v1.51Zm0,0h1.51V-16.2h-1.51v1.51Zm0,0h1.51V-16.2h-1.51v1.51Zm8.235,0h1.51V-16.2h-1.51v1.51Zm0,0h1.51V-16.2h-1.51v1.51Zm0,0h1.51V-16.2h-1.51v1.51Zm0,0h1.51V-16.2h-1.51v1.51Zm-8.235-2.059h1.51v-1.51h-1.51v1.51Zm0,0h1.51v-1.51h-1.51v1.51Zm0,0h1.51v-1.51h-1.51v1.51Zm0,0h1.51v-1.51h-1.51v1.51Zm8.235,0h1.51v-1.51h-1.51v1.51Zm0,0h1.51v-1.51h-1.51v1.51Zm0,0h1.51v-1.51h-1.51v1.51Zm0,0h1.51v-1.51h-1.51v1.51ZM90.149-18.8h1.51v-1.51h-1.51v1.51Zm0,0h1.51v-1.51h-1.51v1.51Zm0,0h1.51v-1.51h-1.51v1.51Zm0,0h1.51v-1.51h-1.51v1.51Zm8.235,0h1.51v-1.51h-1.51v1.51Zm0,0h1.51v-1.51h-1.51v1.51Zm0,0h1.51v-1.51h-1.51v1.51Zm0,0h1.51v-1.51h-1.51v1.51Zm-8.235-2.059h1.51v-1.51h-1.51v1.51Zm0,0h1.51v-1.51h-1.51v1.51Zm0,0h1.51v-1.51h-1.51v1.51Zm0,0h1.51v-1.51h-1.51v1.51Zm2.059,0h1.51v-1.51h-1.51v1.51Zm0,0h1.51v-1.51h-1.51v1.51Zm0,0h1.51v-1.51h-1.51v1.51Zm0,0h1.51v-1.51h-1.51v1.51Zm2.059,0h1.51v-1.51h-1.51v1.51Zm0,0h1.51v-1.51h-1.51v1.51Zm0,0h1.51v-1.51h-1.51v1.51Zm0,0h1.51v-1.51h-1.51v1.51Zm2.059,0h1.51v-1.51h-1.51v1.51Zm0,0h1.51v-1.51h-1.51v1.51Zm0,0h1.51v-1.51h-1.51v1.51Zm0,0h1.51v-1.51h-1.51v1.51ZM105.631,5.9h1.51V4.392h-1.51V5.9Zm0,0h1.51V4.392h-1.51V5.9Zm0,0h1.51V4.392h-1.51V5.9Zm0,0h1.51V4.392h-1.51V5.9Zm2.059,0h1.51V4.392h-1.51V5.9Zm0,0h1.51V4.392h-1.51V5.9Zm0,0h1.51V4.392h-1.51V5.9Zm0,0h1.51V4.392h-1.51V5.9Zm1.029-2.059h1.51V2.333h-1.51v1.51Zm0,0h1.51V2.333h-1.51v1.51Zm0,0h1.51V2.333h-1.51v1.51Zm0,0h1.51V2.333h-1.51v1.51Zm0-2.059h1.51V.275h-1.51v1.51Zm0,0h1.51V.275h-1.51v1.51Zm0,0h1.51V.275h-1.51v1.51Zm0,0h1.51V.275h-1.51v1.51Zm0-2.059h1.51v-1.51h-1.51v1.51Zm0,0h1.51v-1.51h-1.51v1.51Zm0,0h1.51v-1.51h-1.51v1.51Zm0,0h1.51v-1.51h-1.51v1.51Zm0-2.059h1.51v-1.51h-1.51v1.51Zm0,0h1.51v-1.51h-1.51v1.51Zm0,0h1.51v-1.51h-1.51v1.51Zm0,0h1.51v-1.51h-1.51v1.51Zm0-2.059h1.51V-5.9h-1.51v1.51Zm0,0h1.51V-5.9h-1.51v1.51Zm0,0h1.51V-5.9h-1.51v1.51Zm0,0h1.51V-5.9h-1.51v1.51Zm0-2.059h1.51v-1.51h-1.51v1.51Zm0,0h1.51v-1.51h-1.51v1.51Zm0,0h1.51v-1.51h-1.51v1.51Zm0,0h1.51v-1.51h-1.51v1.51Zm1.029-2.059h1.51v-1.51h-1.51v1.51Zm0,0h1.51v-1.51h-1.51v1.51Zm0,0h1.51v-1.51h-1.51v1.51Zm0,0h1.51v-1.51h-1.51v1.51Zm2.059,0h1.51v-1.51h-1.51v1.51Zm0,0h1.51v-1.51h-1.51v1.51Zm0,0h1.51v-1.51h-1.51v1.51Zm0,0h1.51v-1.51h-1.51v1.51Zm-3.088-2.059h1.51v-1.51h-1.51v1.51Zm0,0h1.51v-1.51h-1.51v1.51Zm0,0h1.51v-1.51h-1.51v1.51Zm0,0h1.51v-1.51h-1.51v1.51Zm0-2.059h1.51v-1.51h-1.51v1.51Zm0,0h1.51v-1.51h-1.51v1.51Zm0,0h1.51v-1.51h-1.51v1.51Zm0,0h1.51v-1.51h-1.51v1.51Zm0-2.059h1.51V-16.2h-1.51v1.51Zm0,0h1.51V-16.2h-1.51v1.51Zm0,0h1.51V-16.2h-1.51v1.51Zm0,0h1.51V-16.2h-1.51v1.51Zm0-2.059h1.51v-1.51h-1.51v1.51Zm0,0h1.51v-1.51h-1.51v1.51Zm0,0h1.51v-1.51h-1.51v1.51Zm0,0h1.51v-1.51h-1.51v1.51Zm0-2.059h1.51v-1.51h-1.51v1.51Zm0,0h1.51v-1.51h-1.51v1.51Zm0,0h1.51v-1.51h-1.51v1.51Zm0,0h1.51v-1.51h-1.51v1.51Zm0-2.059h1.51v-1.51h-1.51v1.51Zm0,0h1.51v-1.51h-1.51v1.51Zm0,0h1.51v-1.51h-1.51v1.51Zm0,0h1.51v-1.51h-1.51v1.51Zm-3.088-2.059h1.51v-1.51h-1.51v1.51Zm0,0h1.51v-1.51h-1.51v1.51Zm0,0h1.51v-1.51h-1.51v1.51Zm0,0h1.51v-1.51h-1.51v1.51Zm2.059,0h1.51v-1.51h-1.51v1.51Zm0,0h1.51v-1.51h-1.51v1.51Zm0,0h1.51v-1.51h-1.51v1.51Zm0,0h1.51v-1.51h-1.51v1.51Zm9.334,10.761h.881v-.881h-.881v.881Zm0,0h.881v-.881h-.881v.881Zm0,0h.881v-.881h-.881v.881Zm0,0h.881v-.881h-.881v.881Zm1.2,0h.881v-.881h-.881v.881Zm0,0h.881v-.881h-.881v.881Zm0,0h.881v-.881h-.881v.881Zm0,0h.881v-.881h-.881v.881Zm1.2,0h.881v-.881h-.881v.881Zm0,0h.881v-.881h-.881v.881Zm0,0h.881v-.881h-.881v.881Zm0,0h.881v-.881h-.881v.881Zm1.2,0h.881v-.881h-.881v.881Zm0,0h.881v-.881h-.881v.881Zm0,0h.881v-.881h-.881v.881Zm0,0h.881v-.881h-.881v.881Zm1.2,0h.881v-.881h-.881v.881Zm0,0h.881v-.881h-.881v.881Zm0,0h.881v-.881h-.881v.881Zm0,0h.881v-.881h-.881v.881Zm-3.6-1.2h.881v-.881h-.881v.881Zm0,0h.881v-.881h-.881v.881Zm0,0h.881v-.881h-.881v.881Zm0,0h.881v-.881h-.881v.881Zm.6-1.2h.881v-.881h-.881v.881Zm0,0h.881v-.881h-.881v.881Zm0,0h.881v-.881h-.881v.881Zm0,0h.881v-.881h-.881v.881Zm.6-1.2h.881v-.881h-.881v.881Zm0,0h.881v-.881h-.881v.881Zm0,0h.881v-.881h-.881v.881Zm0,0h.881v-.881h-.881v.881Zm.6-1.2h.881v-.881h-.881v.881Zm0,0h.881v-.881h-.881v.881Zm0,0h.881v-.881h-.881v.881Zm0,0h.881v-.881h-.881v.881Zm.6-1.2h.881v-.881h-.881v.881Zm0,0h.881v-.881h-.881v.881Zm0,0h.881v-.881h-.881v.881Zm0,0h.881v-.881h-.881v.881Zm.6-1.2h.881v-.881h-.881v.881Zm0,0h.881v-.881h-.881v.881Zm0,0h.881v-.881h-.881v.881Zm0,0h.881v-.881h-.881v.881Zm-4.2-1.2h.881v-.881h-.881v.881Zm0,0h.881v-.881h-.881v.881Zm0,0h.881v-.881h-.881v.881Zm0,0h.881v-.881h-.881v.881Zm4.8,0h.881v-.881h-.881v.881Zm0,0h.881v-.881h-.881v.881Zm0,0h.881v-.881h-.881v.881Zm0,0h.881v-.881h-.881v.881Zm-4.8-1.2h.881v-.881h-.881v.881Zm0,0h.881v-.881h-.881v.881Zm0,0h.881v-.881h-.881v.881Zm0,0h.881v-.881h-.881v.881Zm4.8,0h.881v-.881h-.881v.881Zm0,0h.881v-.881h-.881v.881Zm0,0h.881v-.881h-.881v.881Zm0,0h.881v-.881h-.881v.881Zm-4.8-1.2h.881v-.881h-.881v.881Zm0,0h.881v-.881h-.881v.881Zm0,0h.881v-.881h-.881v.881Zm0,0h.881v-.881h-.881v.881Zm4.8,0h.881v-.881h-.881v.881Zm0,0h.881v-.881h-.881v.881Zm0,0h.881v-.881h-.881v.881Zm0,0h.881v-.881h-.881v.881Zm-3.6-1.2h.881v-.881h-.881v.881Zm0,0h.881v-.881h-.881v.881Zm0,0h.881v-.881h-.881v.881Zm0,0h.881v-.881h-.881v.881Zm1.2,0h.881v-.881h-.881v.881Zm0,0h.881v-.881h-.881v.881Zm0,0h.881v-.881h-.881v.881Zm0,0h.881v-.881h-.881v.881Zm1.2,0h.881v-.881h-.881v.881Zm0,0h.881v-.881h-.881v.881Zm0,0h.881v-.881h-.881v.881Zm0,0h.881v-.881h-.881v.881Zm9.031,12.009h.881v-.881h-.881v.881Zm0,0h.881v-.881h-.881v.881Zm0,0h.881v-.881h-.881v.881Zm0,0h.881v-.881h-.881v.881Zm0-1.2h.881v-.881h-.881v.881Zm0,0h.881v-.881h-.881v.881Zm0,0h.881v-.881h-.881v.881Zm0,0h.881v-.881h-.881v.881Zm-3.6-1.2h.881v-.881h-.881v.881Zm0,0h.881v-.881h-.881v.881Zm0,0h.881v-.881h-.881v.881Zm0,0h.881v-.881h-.881v.881Zm1.2,0h.881v-.881h-.881v.881Zm0,0h.881v-.881h-.881v.881Zm0,0h.881v-.881h-.881v.881Zm0,0h.881v-.881h-.881v.881Zm1.2,0h.881v-.881h-.881v.881Zm0,0h.881v-.881h-.881v.881Zm0,0h.881v-.881h-.881v.881Zm0,0h.881v-.881h-.881v.881Zm1.2,0h.881v-.881h-.881v.881Zm0,0h.881v-.881h-.881v.881Zm0,0h.881v-.881h-.881v.881Zm0,0h.881v-.881h-.881v.881Zm1.2,0h.881v-.881h-.881v.881Zm0,0h.881v-.881h-.881v.881Zm0,0h.881v-.881h-.881v.881Zm0,0h.881v-.881h-.881v.881Zm1.2,0h.881v-.881h-.881v.881Zm0,0h.881v-.881h-.881v.881Zm0,0h.881v-.881h-.881v.881Zm0,0h.881v-.881h-.881v.881Zm-6-1.2h.881v-.881h-.881v.881Zm0,0h.881v-.881h-.881v.881Zm0,0h.881v-.881h-.881v.881Zm0,0h.881v-.881h-.881v.881Zm3.6,0h.881v-.881h-.881v.881Zm0,0h.881v-.881h-.881v.881Zm0,0h.881v-.881h-.881v.881Zm0,0h.881v-.881h-.881v.881Zm-3.6-1.2h.881v-.881h-.881v.881Zm0,0h.881v-.881h-.881v.881Zm0,0h.881v-.881h-.881v.881Zm0,0h.881v-.881h-.881v.881Zm3.6,0h.881v-.881h-.881v.881Zm0,0h.881v-.881h-.881v.881Zm0,0h.881v-.881h-.881v.881Zm0,0h.881v-.881h-.881v.881Zm-3-1.2h.881v-.881h-.881v.881Zm0,0h.881v-.881h-.881v.881Zm0,0h.881v-.881h-.881v.881Zm0,0h.881v-.881h-.881v.881Zm.6-1.2h.881v-.881h-.881v.881Zm0,0h.881v-.881h-.881v.881Zm0,0h.881v-.881h-.881v.881Zm0,0h.881v-.881h-.881v.881Zm.6-1.2h.881v-.881h-.881v.881Zm0,0h.881v-.881h-.881v.881Zm0,0h.881v-.881h-.881v.881Zm0,0h.881v-.881h-.881v.881Zm.6-1.2h.881v-.881h-.881v.881Zm0,0h.881v-.881h-.881v.881Zm0,0h.881v-.881h-.881v.881Zm0,0h.881v-.881h-.881v.881Zm.6-1.2h.881v-.881h-.881v.881Zm0,0h.881v-.881h-.881v.881Zm0,0h.881v-.881h-.881v.881Zm0,0h.881v-.881h-.881v.881Zm.6-1.2h.881v-.881h-.881v.881Zm0,0h.881v-.881h-.881v.881Zm0,0h.881v-.881h-.881v.881Zm0,0h.881v-.881h-.881v.881Z" transform="translate(-5028 73.844)" fill="#fff"/>
    <path id="Tracé_389" data-name="Tracé 389" d="M-67.129-3V-7.2h1.622q.061,0,.139,0a1.242,1.242,0,0,1,.156.019,1.169,1.169,0,0,1,.559.229,1.142,1.142,0,0,1,.347.451,1.489,1.489,0,0,1,.118.6,1.466,1.466,0,0,1-.12.6,1.155,1.155,0,0,1-.349.451,1.167,1.167,0,0,1-.556.229q-.079.012-.156.017t-.139.006H-66.7V-3Zm.429-2h1.181q.052,0,.122-.006a1.058,1.058,0,0,0,.137-.02.726.726,0,0,0,.354-.178A.829.829,0,0,0-64.7-5.52,1.053,1.053,0,0,0-64.63-5.9a1.064,1.064,0,0,0-.069-.378.827.827,0,0,0-.207-.314.726.726,0,0,0-.354-.178.912.912,0,0,0-.137-.019q-.07,0-.122,0H-66.7Zm2.511,2,1.447-4.2h.569L-60.728-3h-.446l-1.374-3.961h.169L-63.743-3Zm.645-1.018v-.4h2.17v.4ZM-60.2-3V-7.2h1.622q.061,0,.139,0a1.242,1.242,0,0,1,.156.019,1.17,1.17,0,0,1,.559.229,1.142,1.142,0,0,1,.347.451,1.489,1.489,0,0,1,.118.6,1.38,1.38,0,0,1-.251.825,1.1,1.1,0,0,1-.717.44l-.149.035h-1.394V-3Zm2.543,0-.828-1.709.411-.157L-57.167-3Zm-2.114-2h1.181q.052,0,.122-.006a1.058,1.058,0,0,0,.137-.02.726.726,0,0,0,.354-.178.829.829,0,0,0,.207-.312A1.053,1.053,0,0,0-57.7-5.9a1.065,1.065,0,0,0-.069-.378.826.826,0,0,0-.207-.314.726.726,0,0,0-.354-.178.912.912,0,0,0-.137-.019q-.07,0-.122,0h-1.181ZM-50.855.15A3.47,3.47,0,0,1-52.7-.322,3.108,3.108,0,0,1-53.887-1.64,4.416,4.416,0,0,1-54.3-3.6a4.416,4.416,0,0,1,.413-1.96A3.108,3.108,0,0,1-52.7-6.877a3.47,3.47,0,0,1,1.85-.473,3.361,3.361,0,0,1,2.075.623A3.273,3.273,0,0,1-47.615-5.05l-1.215.335a2.13,2.13,0,0,0-.715-1.1,2.055,2.055,0,0,0-1.31-.4,2.115,2.115,0,0,0-1.208.325,1.977,1.977,0,0,0-.725.912A3.656,3.656,0,0,0-53.035-3.6a3.594,3.594,0,0,0,.243,1.378,1.971,1.971,0,0,0,.728.913,2.127,2.127,0,0,0,1.21.325,2.047,2.047,0,0,0,1.31-.4,2.144,2.144,0,0,0,.715-1.1l1.215.335A3.273,3.273,0,0,1-48.78-.472,3.361,3.361,0,0,1-50.855.15Zm7.385,0a3.47,3.47,0,0,1-1.85-.472A3.108,3.108,0,0,1-46.5-1.64a4.416,4.416,0,0,1-.413-1.96A4.416,4.416,0,0,1-46.5-5.56,3.108,3.108,0,0,1-45.32-6.877a3.47,3.47,0,0,1,1.85-.473,3.483,3.483,0,0,1,1.853.473A3.1,3.1,0,0,1-40.432-5.56,4.417,4.417,0,0,1-40.02-3.6a4.417,4.417,0,0,1-.412,1.96A3.1,3.1,0,0,1-41.617-.322,3.483,3.483,0,0,1-43.47.15Zm0-1.135a2.088,2.088,0,0,0,1.208-.32,1.975,1.975,0,0,0,.725-.915,3.613,3.613,0,0,0,.243-1.38,3.556,3.556,0,0,0-.243-1.372,1.98,1.98,0,0,0-.725-.908,2.17,2.17,0,0,0-1.208-.335,2.076,2.076,0,0,0-1.2.32,1.981,1.981,0,0,0-.722.915A3.613,3.613,0,0,0-45.64-3.6a3.589,3.589,0,0,0,.24,1.373,1.965,1.965,0,0,0,.722.908A2.17,2.17,0,0,0-43.47-.985ZM-39.02,0V-7.2h2.295l.358.005a5.151,5.151,0,0,1,.517.035,2.74,2.74,0,0,1,1.448.608,3.124,3.124,0,0,1,.9,1.267A4.536,4.536,0,0,1-33.2-3.6,4.536,4.536,0,0,1-33.5-1.915a3.124,3.124,0,0,1-.9,1.267A2.74,2.74,0,0,1-35.85-.04a5,5,0,0,1-.515.035l-.36.005Zm1.225-1.135h1.07q.15,0,.382-.01a2.812,2.812,0,0,0,.413-.045,1.424,1.424,0,0,0,.83-.455,2.263,2.263,0,0,0,.472-.875,3.784,3.784,0,0,0,.153-1.08,3.8,3.8,0,0,0-.155-1.1,2.182,2.182,0,0,0-.478-.865,1.454,1.454,0,0,0-.822-.445,2.248,2.248,0,0,0-.413-.048q-.232-.008-.382-.008h-1.07ZM-32.015,0V-7.2h4.65v1.13H-30.81V-4.3h2.845v1.13H-30.81V-1.13h3.445V0Zm8.84,0V-1.19h-3.19V-2.315L-24.06-7.2h1.375L-24.99-2.315h1.815V-4.19h1.22v1.875h.675V-1.19h-.675V0Zm5.76.15a3.533,3.533,0,0,1-1.423-.275,2.657,2.657,0,0,1-1.04-.788,2.549,2.549,0,0,1-.517-1.218l1.25-.19a1.654,1.654,0,0,0,.657.99,1.944,1.944,0,0,0,1.148.35,2.163,2.163,0,0,0,.725-.12,1.345,1.345,0,0,0,.552-.35.8.8,0,0,0,.213-.565.754.754,0,0,0-.05-.278.677.677,0,0,0-.148-.227A1.032,1.032,0,0,0-16.3-2.7a1.87,1.87,0,0,0-.352-.143l-1.86-.55a4.745,4.745,0,0,1-.517-.187,2.076,2.076,0,0,1-.525-.325,1.59,1.59,0,0,1-.405-.53,1.809,1.809,0,0,1-.157-.8A1.9,1.9,0,0,1-19.762-6.4a2.124,2.124,0,0,1,.95-.707,3.531,3.531,0,0,1,1.327-.23,3.394,3.394,0,0,1,1.32.253,2.53,2.53,0,0,1,.97.717,2.758,2.758,0,0,1,.55,1.135l-1.3.225a1.437,1.437,0,0,0-.308-.648,1.484,1.484,0,0,0-.555-.408,1.888,1.888,0,0,0-.7-.15,1.852,1.852,0,0,0-.668.108,1.2,1.2,0,0,0-.495.323.713.713,0,0,0-.187.49.6.6,0,0,0,.16.432,1.139,1.139,0,0,0,.4.265,3.909,3.909,0,0,0,.483.162l1.29.36q.265.07.595.19a2.7,2.7,0,0,1,.635.335,1.7,1.7,0,0,1,.5.565,1.8,1.8,0,0,1,.2.89,2.005,2.005,0,0,1-.233.983,2.08,2.08,0,0,1-.627.7,2.861,2.861,0,0,1-.9.42A3.978,3.978,0,0,1-17.415.15Zm6.81,0A3.151,3.151,0,0,1-12.117-.2a2.545,2.545,0,0,1-1.02-.985,2.922,2.922,0,0,1-.368-1.49V-7.19l1.22-.01v4.5a1.82,1.82,0,0,0,.137.725,1.614,1.614,0,0,0,.373.543,1.6,1.6,0,0,0,.54.337,1.771,1.771,0,0,0,.63.115A1.745,1.745,0,0,0-9.967-1.1a1.636,1.636,0,0,0,.537-.34,1.584,1.584,0,0,0,.37-.543,1.836,1.836,0,0,0,.135-.72V-7.2H-7.7v4.525a2.922,2.922,0,0,1-.368,1.49A2.545,2.545,0,0,1-9.092-.2,3.151,3.151,0,0,1-10.6.15ZM-6.3,0V-7.2h2.3l.358.005a5.151,5.151,0,0,1,.517.035,2.74,2.74,0,0,1,1.448.608,3.124,3.124,0,0,1,.9,1.267A4.536,4.536,0,0,1-.485-3.6a4.536,4.536,0,0,1-.3,1.685,3.124,3.124,0,0,1-.9,1.267A2.74,2.74,0,0,1-3.135-.04a5,5,0,0,1-.515.035L-4.01,0ZM-5.08-1.135h1.07q.15,0,.382-.01a2.812,2.812,0,0,0,.413-.045,1.424,1.424,0,0,0,.83-.455,2.263,2.263,0,0,0,.472-.875A3.784,3.784,0,0,0-1.76-3.6a3.8,3.8,0,0,0-.155-1.1,2.182,2.182,0,0,0-.477-.865,1.454,1.454,0,0,0-.823-.445,2.248,2.248,0,0,0-.413-.048q-.232-.008-.382-.008H-5.08Z" transform="translate(-4914.197 95.096)" fill="#fff"/>
  </g>
</svg>
